<?xml version="1.0" standalone="no"?>
<!DOCTYPE svg PUBLIC "-//W3C//DTD SVG 20010904//EN"
 "http://www.w3.org/TR/2001/REC-SVG-20010904/DTD/svg10.dtd">
<svg version="1.0" xmlns="http://www.w3.org/2000/svg"
 width="154.000000pt" height="154.000000pt" viewBox="0 0 154.000000 154.000000"
 preserveAspectRatio="xMidYMid meet">
<metadata>
Created by potrace 1.11, written by Peter Selinger 2001-2013
</metadata>
<g transform="translate(0.000000,154.000000) scale(0.100000,-0.100000)"
fill="#000000" stroke="none">
<path d="M0 770 l0 -770 770 0 770 0 0 770 0 770 -770 0 -770 0 0 -770z m912
430 c60 -17 120 -69 150 -130 23 -45 28 -69 29 -133 2 -103 -32 -176 -104
-224 -67 -45 -104 -53 -249 -53 l-128 0 0 -150 0 -150 -55 0 -55 0 0 425 0
425 188 0 c103 0 204 -5 224 -10z"/>
<path d="M610 934 l0 -176 123 3 c149 5 190 21 225 89 45 89 15 196 -68 238
-38 19 -60 22 -162 22 l-118 0 0 -176z"/>
</g>
</svg>
